<?xml version="1.0" encoding="UTF-8" standalone="no"?>
<!-- Uploaded to: SVG Repo, www.svgrepo.com, Transformed by: SVG Repo Mixer Tools -->

<svg
   width="64"
   height="64"
   viewBox="0 0 24 24"
   fill="none"
   version="1.1"
   id="svg1"
   sodipodi:docname="shield-minimalistic-svgrepo-com.svg"
   xml:space="preserve"
   xmlns:inkscape="http://www.inkscape.org/namespaces/inkscape"
   xmlns:sodipodi="http://sodipodi.sourceforge.net/DTD/sodipodi-0.dtd"
   xmlns="http://www.w3.org/2000/svg"
   xmlns:svg="http://www.w3.org/2000/svg"><defs
     id="defs1" /><sodipodi:namedview
     id="namedview1"
     pagecolor="#ffffff"
     bordercolor="#000000"
     borderopacity="0.25"
     inkscape:showpageshadow="2"
     inkscape:pageopacity="0.0"
     inkscape:pagecheckerboard="0"
     inkscape:deskcolor="#d1d1d1" /><g
     id="SVGRepo_iconCarrier"
     style="display:inline;fill:#ffffff"
     inkscape:label="SVGRepo_iconCarrier"><path
       fill-rule="evenodd"
       clip-rule="evenodd"
       d="m 12,2.75 c -0.6577,0 -1.3049,0.21164 -2.91938,0.7643 L 8.5078,3.71037 C 6.99521,4.22814 5.8921,4.60605 5.11759,4.92069 4.731,5.07774 4.4509,5.20935 4.25429,5.32353 4.15722,5.3799 4.09034,5.42642 4.04567,5.46273 4.0078,5.49351 3.99336,5.51095 3.99129,5.51349 3.98936,5.51663 3.97693,5.5374 3.95943,5.58654 3.93944,5.64265 3.91729,5.72309 3.89571,5.83506 3.85204,6.06169 3.81894,6.37301 3.79608,6.79292 3.75028,7.63411 3.75,8.80833 3.75,10.4167 v 1.5747 c 0,5.1751 3.8699,7.7221 6.4488,8.8486 0.3715,0.1623 0.586,0.2541 0.8248,0.3152 C 11.2517,21.2136 11.53,21.25 12,21.25 c 0.47,0 0.7483,-0.0364 0.9764,-0.0948 0.2388,-0.0611 0.4533,-0.1529 0.8248,-0.3152 2.5789,-1.1265 6.4488,-3.6735 6.4488,-8.8486 v -1.5747 c 0,-1.60837 -3e-4,-2.78259 -0.0461,-3.62378 C 20.1811,6.37301 20.148,6.06169 20.1043,5.83506 20.0827,5.72309 20.0606,5.64265 20.0406,5.58654 20.0231,5.53737 20.0106,5.5166 20.0087,5.51348 20.0066,5.51092 19.9922,5.49349 19.9543,5.46273 19.9097,5.42642 19.8428,5.3799 19.7457,5.32353 19.5491,5.20935 19.269,5.07774 18.8824,4.92069 18.1079,4.60605 17.0048,4.22814 15.4922,3.71037 L 14.9194,3.5143 C 13.3049,2.96164 12.6577,2.75 12,2.75 Z M 8.72339,2.05112 C 10.1673,1.55658 11.0625,1.25 12,1.25 c 0.9375,0 1.8327,0.30658 3.2766,0.80112 0.0424,0.01451 0.0852,0.02918 0.1286,0.04402 l 0.5988,0.20499 c 1.4814,0.50707 2.6246,0.89839 3.443,1.23086 0.4122,0.16747 0.7666,0.32968 1.052,0.49542 0.2747,0.15949 0.5502,0.35843 0.7374,0.62513 0.185,0.26362 0.2807,0.5877 0.3408,0.89968 0.0625,0.32434 0.1002,0.71342 0.1245,1.16014 C 21.75,7.5984 21.75,8.81361 21.75,10.3898 v 1.6016 c 0,6.101 -4.608,9.0261 -7.3483,10.2232 l -0.0271,0.0118 c -0.3398,0.1485 -0.6592,0.288 -1.0262,0.382 C 12.9609,22.7076 12.5493,22.75 12,22.75 c -0.5493,0 -0.9609,-0.0424 -1.3484,-0.1416 -0.367,-0.094 -0.68637,-0.2335 -1.02617,-0.382 L 9.59833,22.2146 C 6.85803,21.0175 2.25,18.0924 2.25,11.9914 v -1.6015 c 0,-1.57625 0,-2.79149 0.0483,-3.67854 C 2.32262,6.26464 2.36031,5.87556 2.42281,5.55122 2.48293,5.23924 2.5786,4.91516 2.76363,4.65154 2.95082,4.38484 3.22634,4.1859 3.50098,4.02641 3.78637,3.86067 4.14078,3.69846 4.55303,3.53099 5.3714,3.19852 6.51462,2.8072 7.99595,2.30014 l 0.59888,-0.205 C 8.63817,2.0803 8.68101,2.06563 8.72339,2.05112 Z"
       fill="#ffffff"
       id="path1"
       style="display:inline;fill:#ffffff" /></g><g
     style="fill:#1a1a1a;stroke:#ffffff"
     id="g1"
     transform="matrix(0.7091946,0,0,0.7091946,4.9895958,4.7411411)"><g
       id="SVGRepo_bgCarrier-8"
       stroke-width="0"
       style="display:none;fill:#1a1a1a" /><g
       id="SVGRepo_tracerCarrier-9"
       stroke-linecap="round"
       stroke-linejoin="round"
       style="display:none;fill:#1a1a1a" /><g
       id="SVGRepo_iconCarrier-1"
       style="display:inline;fill:#ffffff"><path
         d="M 9.646,14.096 A 1,1 0 1 1 8.232,15.51 L 6.818,14.096 3.99,16.925 A 1.0002026,1.0002026 0 0 1 2.575,18.339 L 1.161,16.925 A 1.0002026,1.0002026 0 0 1 2.575,15.51 L 5.404,12.682 3.99,11.268 A 1,1 0 0 1 5.404,9.854 Z m 0.708,-0.707 -4.244,-4.243 8.486,-8.485 3.536,0.707 0.707,3.536 z"
         id="path1-6"
         style="fill:#ffffff" /></g></g></svg>
